<mxfile host="app.diagrams.net" modified="2023-03-19T06:27:48.176Z" agent="5.0 (Macintosh; Intel Mac OS X 10_15_7) AppleWebKit/537.36 (KHTML, like Gecko) Chrome/98.0.4758.102 Safari/537.36" etag="Z7vgYGo0zzNEUHtDkot7" version="21.0.6" type="github">
  <diagram id="C5RBs43oDa-KdzZeNtuy" name="Page-1">
    <mxGraphModel dx="1434" dy="739" grid="1" gridSize="10" guides="1" tooltips="1" connect="1" arrows="1" fold="1" page="1" pageScale="1" pageWidth="827" pageHeight="1169" math="0" shadow="0">
      <root>
        <mxCell id="WIyWlLk6GJQsqaUBKTNV-0" />
        <mxCell id="WIyWlLk6GJQsqaUBKTNV-1" parent="WIyWlLk6GJQsqaUBKTNV-0" />
        <mxCell id="24U9RdbnC4KEgLxkMUlo-0" value="" style="rounded=0;whiteSpace=wrap;html=1;fillColor=#ffe6cc;strokeColor=#e9d49f;opacity=30;dashed=1;dashPattern=8 8;" vertex="1" parent="WIyWlLk6GJQsqaUBKTNV-1">
          <mxGeometry x="70" y="150" width="150" height="360" as="geometry" />
        </mxCell>
        <mxCell id="24U9RdbnC4KEgLxkMUlo-1" value="业务场景" style="text;html=1;strokeColor=none;fillColor=none;align=center;verticalAlign=middle;whiteSpace=wrap;rounded=0;" vertex="1" parent="WIyWlLk6GJQsqaUBKTNV-1">
          <mxGeometry x="115" y="150" width="60" height="30" as="geometry" />
        </mxCell>
        <mxCell id="24U9RdbnC4KEgLxkMUlo-2" value="报销单" style="rounded=0;whiteSpace=wrap;html=1;fillColor=none;dashed=1;" vertex="1" parent="WIyWlLk6GJQsqaUBKTNV-1">
          <mxGeometry x="92.5" y="200" width="105" height="30" as="geometry" />
        </mxCell>
        <mxCell id="24U9RdbnC4KEgLxkMUlo-3" value="申请单" style="rounded=0;whiteSpace=wrap;html=1;fillColor=none;dashed=1;" vertex="1" parent="WIyWlLk6GJQsqaUBKTNV-1">
          <mxGeometry x="92.5" y="250" width="105" height="30" as="geometry" />
        </mxCell>
        <mxCell id="24U9RdbnC4KEgLxkMUlo-4" value="借款单" style="rounded=0;whiteSpace=wrap;html=1;fillColor=none;dashed=1;" vertex="1" parent="WIyWlLk6GJQsqaUBKTNV-1">
          <mxGeometry x="92.5" y="300" width="105" height="30" as="geometry" />
        </mxCell>
        <mxCell id="24U9RdbnC4KEgLxkMUlo-5" value="还款单" style="rounded=0;whiteSpace=wrap;html=1;fillColor=none;dashed=1;" vertex="1" parent="WIyWlLk6GJQsqaUBKTNV-1">
          <mxGeometry x="92.5" y="350" width="105" height="30" as="geometry" />
        </mxCell>
        <mxCell id="24U9RdbnC4KEgLxkMUlo-6" value="对公付款单" style="rounded=0;whiteSpace=wrap;html=1;fillColor=none;dashed=1;" vertex="1" parent="WIyWlLk6GJQsqaUBKTNV-1">
          <mxGeometry x="92.5" y="400" width="105" height="30" as="geometry" />
        </mxCell>
        <mxCell id="24U9RdbnC4KEgLxkMUlo-7" value="合同" style="rounded=0;whiteSpace=wrap;html=1;fillColor=none;dashed=1;" vertex="1" parent="WIyWlLk6GJQsqaUBKTNV-1">
          <mxGeometry x="92.5" y="460" width="105" height="30" as="geometry" />
        </mxCell>
      </root>
    </mxGraphModel>
  </diagram>
</mxfile>
